<svg id="图层_1" data-name="图层 1" xmlns="http://www.w3.org/2000/svg" viewBox="0 0 80 80"><defs><style>.cls-1{fill:#f58f08;}.cls-2{fill:none;}.cls-3{fill:#fff;}</style></defs><title>画板 1 副本 2</title><polygon class="cls-1" points="40.29 12.96 15.51 31.28 2.58 19.14 26.71 0.89 40.29 12.96"/><polygon class="cls-1" points="55.06 0.89 78.88 17.56 65.14 30.89 40.74 12.9 55.06 0.89"/><polygon class="cls-2" points="65.08 31.35 40.29 49.73 15.49 31.35 40.29 12.96 65.08 31.35"/><polygon class="cls-1" points="39.65 50.06 40.93 80.25 65.72 60.74 65.08 31.35 39.65 50.06"/><polygon class="cls-1" points="14.85 31.35 14.85 62.13 40.93 79.91 40.29 49.73 14.85 31.35"/><polygon class="cls-1" points="80 39.65 55.26 59.46 40.74 49.33 65.14 30.89 80 39.65"/><path class="cls-3" d="M55.28,60.08,39.89,49.35,65.1,30.29l15.77,9.3ZM41.59,49.32l13.65,9.52L79.12,39.72,65.17,31.49Z"/><polygon class="cls-1" points="24.82 62.59 0.51 43.66 15.51 31.28 40.29 48.97 24.82 62.59"/><path class="cls-3" d="M24.84,63.24-.29,43.67l15.78-13,25.6,18.27ZM1.31,43.65,24.8,61.94,39.49,49l-24-17.09Z"/></svg>