<svg id="图层_1" data-name="图层 1" xmlns="http://www.w3.org/2000/svg" viewBox="0 0 80 80"><defs><style>.cls-1{fill:#f58f08;}</style></defs><title>画板 1</title><path class="cls-1" d="M74.83,36.2C70.41,35.3,62,34.95,62,28.33a10.81,10.81,0,0,1,3.95-8.17,8.45,8.45,0,0,0,1.64-1.54c2.66-3.86-5.16-8-7.69-9.54a42.06,42.06,0,0,0-14-5.17C24.4.07,4.12,13.15.54,33.13S11.46,72.41,32.92,76.25a46.42,46.42,0,0,0,8.24.73,41.4,41.4,0,0,0,25.67-8.56A35.32,35.32,0,0,0,79,49.69,28.71,28.71,0,0,0,80,43.75C80.27,39.9,78.83,37,74.83,36.2ZM15,21.65c1.27-2.76,5-3.74,8.37-2.19s5,5,3.76,7.79-5,3.74-8.37,2.19S13.68,24.41,15,21.65Zm-5.31,22c-1.26-2.77.44-6.25,3.8-7.78s7.1-.53,8.36,2.24-.45,6.25-3.8,7.78S10.91,46.42,9.65,43.66ZM27.58,59.94c-2.28,2.91-6.06,3.74-8.45,1.87s-2.48-5.75-.21-8.65,6.06-3.74,8.45-1.87S29.85,57,27.58,59.94Zm5.06-47.85a5.74,5.74,0,0,1,8.07-.8,5.74,5.74,0,0,1,1.24,8,5.74,5.74,0,0,1-8.07.8A5.74,5.74,0,0,1,32.64,12.09Zm14.1,53.48C46,69.19,43,71.64,40,71S35.23,67,36,63.4s3.73-6.07,6.71-5.47S47.47,62,46.74,65.57Zm7.12-19.44c-2.57.56-5.21-1.51-5.89-4.63s.84-6.11,3.41-6.67,5.21,1.51,5.89,4.63S56.43,45.57,53.86,46.13Z"/></svg>