<svg id="图层_1" data-name="图层 1" xmlns="http://www.w3.org/2000/svg" viewBox="0 0 55 55"><defs><style>.cls-1,.cls-2{fill:none;stroke:#f39e09;stroke-miterlimit:10;stroke-width:3px;}.cls-2{stroke-linecap:round;}</style></defs><title>画板 2</title><path class="cls-1" d="M16.77,20.85l1.73-.78s1.27-1.58,1.09-4.93S17.74,7.07,14.93,5c-2-1.49-5.3-.39-7.18.92C2.62,9.55,3.47,16.34,4.47,21.63a43.06,43.06,0,0,0,6.8,16.28A43.94,43.94,0,0,0,26.19,51.61c2,1.09,4.38,2.3,6.75,2.06A7.52,7.52,0,0,0,39.4,46c-.33-2.59-2.41-4.66-4.2-6.45-1.26-1.26-5.43-4.92-7.37-3.15L26.4,37.7a1.74,1.74,0,0,1-1.92.27C21.35,36.46,12.71,31.34,15.67,22A2,2,0,0,1,16.77,20.85Z"/><path class="cls-2" d="M33,27.37a7.46,7.46,0,0,0,.56-2,7.15,7.15,0,0,0-4.19-7.41"/><path class="cls-2" d="M34.95,12.25a12.21,12.21,0,0,1,7.18,12.67,11.76,11.76,0,0,1-1,3.47"/><path class="cls-2" d="M40.11,6a18.72,18.72,0,0,1,11,19.44,19,19,0,0,1-1.48,5.33"/></svg>