<svg id="图层_1" data-name="图层 1" xmlns="http://www.w3.org/2000/svg" viewBox="0 0 54 54"><defs><style>.cls-1,.cls-2{fill:none;stroke:#fff;}.cls-1{stroke-miterlimit:10;stroke-width:2px;}.cls-2{stroke-linejoin:round;stroke-width:1.5px;}</style></defs><title>画板 1 副本 3</title><path class="cls-1" d="M33.21,34.65l-1.55.9v7h-3.1V34.23l5-5A1.55,1.55,0,0,0,31.39,27L27,31.39,22.61,27a1.55,1.55,0,0,0-2.19,2.19l5,5v8.29h-3.1v-7l-1.55-.9a12.42,12.42,0,1,1,12.41,0M27,8.38a15.52,15.52,0,0,0-7.76,29v6.73a1.55,1.55,0,0,0,1.55,1.55H33.21a1.55,1.55,0,0,0,1.55-1.55V37.34A15.52,15.52,0,0,0,27,8.38"/><rect class="cls-2" x="22.34" y="48.18" width="9.31" height="1.55"/><rect class="cls-2" x="23.9" y="51.28" width="6.21" height="1.55"/><path class="cls-1" d="M27,2.17a.78.78,0,0,1,.78.78V6a.78.78,0,1,1-1.55,0V2.94A.78.78,0,0,1,27,2.17ZM44.56,9.44a.78.78,0,0,1,0,1.1l-2.2,2.2a.78.78,0,1,1-1.1-1.1l2.2-2.2a.78.78,0,0,1,1.1,0ZM51.83,27a.78.78,0,0,1-.78.78H48a.78.78,0,1,1,0-1.55h3.1a.78.78,0,0,1,.78.78ZM2.17,27a.78.78,0,0,1,.78-.78H6a.78.78,0,0,1,0,1.55H2.94A.78.78,0,0,1,2.17,27ZM9.44,9.44a.78.78,0,0,1,1.1,0l2.2,2.2a.78.78,0,1,1-1.1,1.1l-2.2-2.2a.78.78,0,0,1,0-1.1Zm0,0"/></svg>