<svg id="图层_1" data-name="图层 1" xmlns="http://www.w3.org/2000/svg" viewBox="0 0 54 54"><defs><style>.cls-1{fill:none;stroke:#fff;stroke-miterlimit:10;stroke-width:2px;}</style></defs><title>画板 1 副本</title><path class="cls-1" d="M26.82,52.6a3.84,3.84,0,0,1-2.27-.74L13.83,44A24,24,0,0,1,4,24.7V11.55A3.78,3.78,0,0,1,6.65,7.94L25.26,2a5.12,5.12,0,0,1,3.13,0L47,7.94a3.79,3.79,0,0,1,2.65,3.61V24.7A24,24,0,0,1,39.82,44L29.09,51.86a3.84,3.84,0,0,1-2.27.74Z"/><path class="cls-1" d="M26.82,4.23a2.53,2.53,0,0,0-.79.12l-18.61,6a1.27,1.27,0,0,0-.89,1.22V24.7A21.47,21.47,0,0,0,15.33,42l10.73,7.85a1.3,1.3,0,0,0,1.52,0L38.32,42a21.48,21.48,0,0,0,8.8-17.28V11.55a1.27,1.27,0,0,0-.89-1.21l-18.62-6a2.66,2.66,0,0,0-.79-.12Z"/><path class="cls-1" d="M39.5,22.22a1.3,1.3,0,0,1-.37.9,1.26,1.26,0,0,1-.9.37H28.09V37.43a1.26,1.26,0,0,1-1.27,1.27,1.27,1.27,0,0,1-1.27-1.27V23.49H15.41a1.26,1.26,0,0,1-1.09-.63A1.27,1.27,0,0,1,15.41,21H25.55V12.07a1.27,1.27,0,0,1,2.54,0V21H38.23A1.27,1.27,0,0,1,39.5,22.22Z"/></svg>