<svg id="图层_1" data-name="图层 1" xmlns="http://www.w3.org/2000/svg" viewBox="0 0 54 54"><defs><style>.cls-1,.cls-2{fill:none;stroke:#fff;stroke-linecap:round;stroke-width:2px;}.cls-1{stroke-linejoin:round;}.cls-2{stroke-miterlimit:10;}</style></defs><title>画板 1</title><path class="cls-1" d="M31.53,32.84a12.23,12.23,0,0,0-2.93-3.76,10.3,10.3,0,0,0-4.73-2,.91.91,0,0,0-.88.37l-2.23,3.05-2.42-3.28L20,33a1,1,0,0,1,0,.45L18.3,41.55a.37.37,0,0,0,0,.09v0l-1.89-8.16a1,1,0,0,1,0-.49l1.83-5.82-2.56,3.52-2.2-3a.9.9,0,0,0-1-.35,10.15,10.15,0,0,0-4.06,2,10.78,10.78,0,0,0-2.85,3.91A46.12,46.12,0,0,0,3,41.73C2.4,44,1.87,46.31,1.52,48.63c-.26,1.77.36,4.19,3.5,4.12H15.89c4.93,0,9.92.18,14.83,0,1.73-.07,1.66.14,3.09-.76m2.09-1.5"/><path class="cls-2" d="M30.09,13.36A11.85,11.85,0,1,1,18.22,1.51,11.84,11.84,0,0,1,30.09,13.36Zm0,0"/><path class="cls-2" d="M30.84,36.84a.52.52,0,0,1,.46-.28.51.51,0,0,1,.45.28l1.68,3.4,3.76.55a.51.51,0,0,1,.41.35.52.52,0,0,1-.13.52l-2.72,2.65.64,3.74a.53.53,0,0,1-.2.5.52.52,0,0,1-.54,0L31.3,46.83,27.93,48.6a.51.51,0,0,1-.74-.54l.64-3.74-2.72-2.65a.51.51,0,0,1-.13-.52.51.51,0,0,1,.41-.35l3.76-.55Zm0,0"/><path class="cls-2" d="M45.9,36.84a.51.51,0,0,1,.46-.28.51.51,0,0,1,.46.28l1.68,3.41,3.76.55a.5.5,0,0,1,.41.35.51.51,0,0,1-.13.52l-2.72,2.65.64,3.75a.51.51,0,0,1-.2.5.51.51,0,0,1-.54,0l-3.36-1.77L43,48.6a.52.52,0,0,1-.54,0,.51.51,0,0,1-.2-.5l.65-3.75-2.72-2.65a.51.51,0,0,1-.13-.52.5.5,0,0,1,.41-.35l3.76-.55Zm0,0"/><path class="cls-2" d="M38,23.93a.51.51,0,0,1,.46-.28.5.5,0,0,1,.46.29l1.68,3.4,3.76.55a.51.51,0,0,1,.28.87l-2.72,2.65.64,3.74a.51.51,0,0,1-.74.54l-3.36-1.76-3.36,1.76a.5.5,0,0,1-.54,0,.51.51,0,0,1-.2-.5L35,31.41l-2.72-2.65a.51.51,0,0,1,.28-.87l3.76-.55Zm0,0"/></svg>