<svg id="图层_1" data-name="图层 1" xmlns="http://www.w3.org/2000/svg" viewBox="0 0 54 54"><defs><style>.cls-1{fill:none;stroke:#fff;stroke-miterlimit:10;stroke-width:2px;}.cls-2{fill:#fff;}</style></defs><title>画板 1 副本 2</title><path d="M5.95,43.43v-.1a1,1,0,0,0,0,.1Zm0,0"/><path class="cls-1" d="M51.65,41.08,42.8,25.38a16.62,16.62,0,0,0,.94-5.52,16.92,16.92,0,0,0-33.84,0,16.63,16.63,0,0,0,.94,5.52L2,41.08c-1.28,2.26-.07,3.32.91,3.2s8.51-2,8.51-2,2,6.69,2.78,8.29c.45,1,2,1.24,3.23-.9l7.41-13.12a17.13,17.13,0,0,0,4,0l7.41,13.12c1.19,2.15,2.78,1.87,3.23.9.78-1.6,2.78-8.29,2.78-8.29s7.53,1.91,8.51,2,2.19-.94.91-3.2Zm-36,6.9-2.78-8.29-8.51,2,7.71-13.66a16.93,16.93,0,0,0,10.32,8Zm11.9-13.71-.72,0-.72,0a14.73,14.73,0,0,1-2.53-.34,14.55,14.55,0,0,1-10.11-8.35,14.25,14.25,0,0,1-1.18-5.71,14.55,14.55,0,1,1,28.86,2.57,14.29,14.29,0,0,1-1,3.13,14.55,14.55,0,0,1-10.11,8.35,14.72,14.72,0,0,1-2.53.34Zm13.24,5.42L38,48,31.27,36a16.93,16.93,0,0,0,10.32-8l7.71,13.66Zm0,0"/><path class="cls-2" d="M23.23,18.33q0,.84,0,1.73v2.58q.19-.23.84-1a5.28,5.28,0,0,0,.42.84,25.72,25.72,0,0,0-1.87,2.3,4.24,4.24,0,0,0-.75-.75A1.52,1.52,0,0,0,22.33,23V19.08q-.56,0-1.08,0v-.89a4.35,4.35,0,0,0,.84.09Zm-1.27-3q.42-.23.84-.52.7,1.31,1.08,1.92-.52.28-.94.56A14.15,14.15,0,0,0,22,15.33Zm6-.8a5.11,5.11,0,0,0,1.08.09,2.73,2.73,0,0,0-.09.75q0,.38,0,1.22,1.64,0,2.91,0v.84q-1.27,0-2.91,0,.09,1.27.23,2.25a11.72,11.72,0,0,0,.42,1.88,12.05,12.05,0,0,0,.94-3,8.24,8.24,0,0,0,1,.33,9.61,9.61,0,0,0-.59,1.5,18.41,18.41,0,0,1-.91,2.25A4.81,4.81,0,0,0,31,24.05q.47.52.52-1.17a2.32,2.32,0,0,0,.94.52A5.27,5.27,0,0,1,32,25q-.3.61-.8.4a2.21,2.21,0,0,1-.89-.75,12.16,12.16,0,0,1-.77-1.2,6.74,6.74,0,0,1-.89,1.05q-.47.45-1.22,1.05a8.49,8.49,0,0,0-.75-.75,7.38,7.38,0,0,0,1.41-1,5.65,5.65,0,0,0,1-1.31q-.23-.7-.52-1.92a21.49,21.49,0,0,1-.42-3.19H25.71v1.69h2q0,.52,0,1.31v2q0,.7-.4.89a8.88,8.88,0,0,1-1,.38,4.17,4.17,0,0,0-.37-1,2.39,2.39,0,0,0,.66-.07q.23-.07.23-.68V19.83H25.71A15.64,15.64,0,0,1,25.45,23a12.84,12.84,0,0,1-.87,2.58,3.94,3.94,0,0,0-1-.47,6.43,6.43,0,0,0,.94-1.92A9.17,9.17,0,0,0,24.82,21q0-1.17,0-2.25t0-2.16H28.1Q28.05,15.76,28,14.54Zm3.28,1.17a3.9,3.9,0,0,0-1,.42,7.06,7.06,0,0,0-.42-1.08q.47-.19.94-.42A9,9,0,0,0,31.24,15.71Z"/></svg>